Coordinates
version=1
nRows=17
nColumns=24
inDegrees=yes

Units are S.I. units (second, meters, Newtons, ...)
Angles are in degrees.

endheader
time	pelvis_tilt	pelvis_list	pelvis_rotation	pelvis_tx	pelvis_ty	pelvis_tz	hip_flexion_r	hip_adduction_r	hip_rotation_r	knee_angle_r	ankle_angle_r	subtalar_angle_r	mtp_angle_r	hip_flexion_l	hip_adduction_l	hip_rotation_l	knee_angle_l	ankle_angle_l	subtalar_angle_l	mtp_angle_l	lumbar_extension	lumbar_bending	lumbar_rotation
      0.69016667	      2.27613890	      3.69868728	     -0.19098795	     -0.45301451	      1.02271288	      0.27359920	      7.90641130	      0.23263514	     -2.75394515	    -17.83996451	      7.38827069	     -8.05761046	      9.87263909	     12.87712212	      1.93421797	     -7.77687724	    -65.27689407	     -0.08269757	    -16.59117448	      1.41548284	     -6.47744929	     -3.75910509	      4.41004071
      0.69433333	      2.25973591	      3.81670677	     -0.36586887	     -0.44784290	      1.02344827	      0.27385953	      7.46524259	      0.11083351	     -2.68390468	    -17.53731274	      7.47152568	     -7.89284558	      9.87911456	     13.39827836	      2.03549652	     -7.92515455	    -64.89197779	      0.18076962	    -16.72599953	      1.38411806	     -6.47361754	     -3.85779313	      4.60097205
      0.69850000	      2.22228998	      3.95409157	     -0.55678512	     -0.44267054	      1.02410562	      0.27414140	      7.06660495	     -0.03901378	     -2.64398160	    -17.27271142	      7.64780689	     -7.63730144	      9.89441000	     13.92739611	      2.14976295	     -8.09526993	    -64.43427262	      0.37089973	    -16.81584873	      1.32320781	     -6.45068483	     -4.02164837	      5.03243914
      0.70266667	      2.22330441	      4.07399855	     -0.74367866	     -0.43751038	      1.02479152	      0.27438740	      6.61249354	     -0.17328514	     -2.59819435	    -16.97494907	      7.76624279	     -7.41031162	      9.91059514	     14.39983683	      2.25097527	     -8.24459443	    -63.91537240	      0.61102976	    -16.84419195	      1.27081920	     -6.47643249	     -4.13839384	      5.32456452
      0.70683333	      2.19563814	      4.19202839	     -0.94072445	     -0.43233292	      1.02539080	      0.27463198	      6.19753737	     -0.30875311	     -2.55626837	    -16.69180025	      7.88202463	     -7.18279698	      9.92737873	     14.88608624	      2.34398542	     -8.40857945	    -63.33274749	      0.84513370	    -16.81796329	      1.23294722	     -6.45503797	     -4.24995075	      5.60813979
      0.71100000	      2.17654421	      4.29684366	     -1.13905701	     -0.42716746	      1.02595459	      0.27485380	      5.77075099	     -0.43408308	     -2.51957360	    -16.39718502	      7.98670629	     -6.94966999	      9.94526076	     15.35012247	      2.42492655	     -8.56220931	    -62.69675016	      1.08709184	    -16.74431260	      1.20686620	     -6.44999897	     -4.35049701	      5.88521858
      0.71516667	      2.14786464	      4.39856169	     -1.33057047	     -0.42199353	      1.02645637	      0.27507027	      5.35350639	     -0.55820174	     -2.48961772	    -16.10489941	      8.13177641	     -6.69024918	      9.96904745	     15.81128772	      2.50077202	     -8.70759915	    -62.00760186	      1.31471487	    -16.63285517	      1.18388707	     -6.44366743	     -4.45905094	      6.21679056
      0.71933333	      2.12639958	      4.50160942	     -1.52926969	     -0.41680752	      1.02694838	      0.27527014	      4.92860891	     -0.68817892	     -2.46251619	    -15.80907924	      8.25174424	     -6.43735784	      9.99458206	     16.24182289	      2.57892985	     -8.85522505	    -61.24628763	      1.53479472	    -16.48308296	      1.17189126	     -6.43470821	     -4.55745257	      6.51343322
      0.72350000	      2.11241465	      4.59131776	     -1.72963270	     -0.41162221	      1.02739698	      0.27546871	      4.49387805	     -0.80503746	     -2.43472236	    -15.50858499	      8.36847779	     -6.19340431	     10.01951766	     16.64894682	      2.63945558	     -9.00222362	    -60.43579161	      1.75243054	    -16.28875185	      1.17154250	     -6.43449448	     -4.64501566	      6.79748046
      0.72766667	      2.09018099	      4.67278066	     -1.92703720	     -0.40644165	      1.02777546	      0.27563983	      4.07125576	     -0.91690271	     -2.41349404	    -15.21311556	      8.48714453	     -5.93376807	     10.04758287	     17.05009279	      2.69424171	     -9.13736873	    -59.57449684	      1.97113143	    -16.06040737	      1.18181457	     -6.42906562	     -4.71433503	      7.09733698
      0.73183333	      2.05802775	      4.75902776	     -2.12837996	     -0.40124067	      1.02812374	      0.27581122	      3.65874201	     -1.03489707	     -2.38557794	    -14.91319741	      8.55667674	     -5.71779799	     10.06551850	     17.43820345	      2.75158056	     -9.27939925	    -58.64413699	      2.15551061	    -15.81603952	      1.19563844	     -6.39929063	     -4.79504465	      7.30616500
      0.73600000	      2.04954123	      4.83846682	     -2.32689999	     -0.39604553	      1.02844456	      0.27597311	      3.22034342	     -1.14918171	     -2.36952586	    -14.61389190	      8.67320067	     -5.46890591	     10.08576205	     17.78295443	      2.80384495	     -9.41202056	    -57.66460469	      2.34747506	    -15.52908944	      1.21638915	     -6.40435440	     -4.86640394	      7.57924245
      0.74016667	      2.05954272	      4.88498691	     -2.51274896	     -0.39084510	      1.02874113	      0.27611027	      2.75015159	     -1.23014838	     -2.36551531	    -14.29719884	      8.83327934	     -5.20345762	     10.11568533	     18.09550816	      2.82231139	     -9.52641355	    -56.65353014	      2.54589088	    -15.23215374	      1.25515887	     -6.43776874	     -4.90272153	      7.93867230
      0.74433333	      2.02235467	      4.94266334	     -2.70187154	     -0.38563860	      1.02891776	      0.27624157	      2.34330251	     -1.32258384	     -2.34507934	    -14.00208432	      8.95040816	     -4.97118186	     10.14401106	     18.43824838	      2.85126412	     -9.64435716	    -55.58391651	      2.71423250	    -14.92028059	      1.30105414	     -6.41040245	     -4.94710304	      8.21879565
      0.74850000	      2.02432807	      4.98831501	     -2.88416493	     -0.38042656	      1.02912204	      0.27635963	      1.88375568	     -1.40513283	     -2.33185990	    -13.68678623	      9.05454243	     -4.75293809	     10.17081493	     18.71602381	      2.87258917	     -9.74998076	    -54.45883786	      2.86570469	    -14.59857050	      1.35237737	     -6.42933216	     -4.98015284	      8.48183352
      0.75266667	      1.98225593	      5.03491158	     -3.06269664	     -0.37520743	      1.02922140	      0.27646522	      1.47843781	     -1.48701590	     -2.30876433	    -13.38314995	      9.11507086	     -4.56771059	     10.18723003	     19.02175211	      2.89714499	     -9.84646850	    -53.28012371	      2.97710693	    -14.28351092	      1.38909501	     -6.39102915	     -5.01086207	      8.66890519
      0.75683333	      1.95950962	      5.05717165	     -3.23380831	     -0.36999121	      1.02927014	      0.27655857	      1.04777256	     -1.54493195	     -2.29357939	    -13.07706572	      9.26979154	     -4.34582773	     10.21332332	     19.29332356	      2.89270238	     -9.94026530	    -52.07866168	      3.12462391	    -13.93939355	      1.45362773	     -6.38604767	     -5.01665614	      8.99466653
